<?xml version="1.0" encoding="utf-8"?>
<!-- Generator: Adobe Illustrator 19.2.0, SVG Export Plug-In . SVG Version: 6.00 Build 0)  -->
<svg version="1.1" id="Layer_1" xmlns="http://www.w3.org/2000/svg" xmlns:xlink="http://www.w3.org/1999/xlink" x="0px" y="0px"
	 viewBox="0 0 500 500" style="enable-background:new 0 0 500 500;" xml:space="preserve">
<style type="text/css">
	.st0{fill:#FFFFFF;stroke:#E06036;stroke-width:5;stroke-miterlimit:10;}
	.st1{fill:#D45F39;stroke:#D45F38;stroke-width:5;stroke-miterlimit:10;}
	.st2{fill:#FFFFFF;}
</style>
<polygon class="st0" points="460,372.9 246.9,496 33.8,372.9 33.8,126.9 246.9,3.9 460,126.9 "/>
<polygon class="st1" points="444.1,363.3 246.9,477.2 49.7,363.3 49.7,135.7 246.9,21.8 444.1,135.7 "/>
<polygon class="st2" points="197.7,327.9 193.5,352.9 138.1,394.6 "/>
<polygon class="st2" points="284.8,294.9 240,237.3 345,105.3 "/>
<polygon class="st2" points="289.4,303.3 349.6,113.7 350.8,328.8 "/>
<polygon class="st2" points="349.1,333.7 294.1,333.6 287.7,308.2 "/>
<polygon class="st2" points="136.5,132.6 196.1,322.2 136.5,388.9 "/>
<polygon class="st2" points="142.5,129.4 248.1,263.5 200,319.8 "/>
</svg>
